# This file uses centimeters as units for non-parametric coordinates.

mtllib runner_car.mtl
g default
v -1.344696 0.622996 4.072180
v 1.344696 0.622996 4.072180
v -1.344696 1.166974 3.475064
v 1.344696 1.166974 3.475064
v -1.353475 1.514716 -4.007778
v 1.353475 1.514716 -4.007778
v -1.413202 0.857810 -4.161299
v 1.413202 0.857810 -4.161300
v -1.449399 0.812087 -1.918483
v 1.449399 0.811943 -1.915101
v -1.449399 0.673163 1.146021
v 1.449399 0.673239 1.144222
v -1.449399 0.533289 -1.629747
v 1.449399 0.533170 -1.626930
v 1.449399 0.428527 0.852462
v -1.449399 0.428464 0.853959
v -1.449399 0.247622 -1.504933
v 1.449399 0.247515 -1.502426
v 1.449399 0.154385 0.704187
v -1.449399 0.154329 0.705520
v -1.449399 -0.050577 -1.513109
v 1.449399 -0.050683 -1.510603
v 1.449399 -0.143813 0.696010
v -1.449399 -0.143869 0.697344
v 1.449399 0.835514 -2.764163
v -1.449399 0.835601 -2.766193
v -1.413203 0.606354 -4.151804
v 1.413201 0.606353 -4.151804
v 1.449398 0.585120 -3.125080
v -1.449400 0.585186 -3.126623
v -1.413203 0.338330 -4.137774
v 1.413201 0.338330 -4.137774
v 1.449398 0.323379 -3.259891
v -1.449400 0.323435 -3.261216
v -1.340160 0.000059 -4.072143
v 1.340158 0.000059 -4.072143
v 1.374484 -0.009353 -3.289758
v -1.374487 -0.009304 -3.290894
v 1.449399 0.889343 -2.298451
v -1.449399 0.889458 -2.301156
v -1.449399 0.653096 1.952264
v 1.449399 0.653142 1.951184
v -1.449399 0.364377 2.241104
v 1.449399 0.364423 2.240025
v 1.344696 0.334277 4.108825
v -1.344696 0.334277 4.108825
v -1.449399 0.736653 1.565907
v 1.449399 0.736714 1.564468
v -1.449398 0.094459 2.343265
v 1.449400 0.094505 2.342186
v 1.344697 0.064359 4.104473
v -1.344695 0.064359 4.104473
v -1.449398 -0.175325 2.343265
v 1.449400 -0.175280 2.342186
v 1.344697 -0.205425 4.013844
v -1.344695 -0.205425 4.013844
v 1.449399 1.558107 1.305769
v -1.449399 1.558107 1.305769
v 1.275101 2.425530 0.020686
v -1.275101 2.425530 0.020686
v 1.342332 1.659330 -3.330753
v -1.342332 1.659330 -3.330753
v 1.275101 2.389561 -2.339898
v -1.275101 2.389561 -2.339898
vt 0.375000 0.000000
vt 0.625000 0.000000
vt 0.375000 0.250000
vt 0.625000 0.250000
vt 0.375000 0.500000
vt 0.625000 0.500000
vt 0.375000 0.750000
vt 0.625000 0.750000
vt 0.375000 1.000000
vt 0.625000 1.000000
vt 0.875000 0.000000
vt 0.875000 0.250000
vt 0.125000 0.000000
vt 0.125000 0.250000
vt 0.187587 0.000000
vt 0.375000 0.812587
vt 0.625000 0.812739
vt 0.812261 0.000000
vt 0.321589 0.000000
vt 0.375000 0.946589
vt 0.625000 0.946508
vt 0.678492 0.000000
vt 0.375000 0.812587
vt 0.625000 0.812739
vt 0.625000 0.946508
vt 0.375000 0.946589
vt 0.375000 0.812587
vt 0.625000 0.812739
vt 0.625000 0.946508
vt 0.375000 0.946589
vt 0.375000 0.812587
vt 0.625000 0.812739
vt 0.625000 0.946508
vt 0.375000 0.946589
vt 0.625000 0.787644
vt 0.837356 0.000000
vt 0.162552 0.000000
vt 0.375000 0.787552
vt 0.375000 0.750000
vt 0.625000 0.750000
vt 0.625000 0.787644
vt 0.375000 0.787552
vt 0.375000 0.750000
vt 0.625000 0.750000
vt 0.625000 0.787644
vt 0.375000 0.787552
vt 0.375000 0.750000
vt 0.625000 0.750000
vt 0.625000 0.787644
vt 0.375000 0.787552
vt 0.625000 0.800191
vt 0.824809 0.000000
vt 0.175070 0.000000
vt 0.375000 0.800070
vt 0.342953 0.000000
vt 0.375000 0.967953
vt 0.625000 0.967905
vt 0.657095 0.000000
vt 0.375000 0.967953
vt 0.625000 0.967905
vt 0.625000 1.000000
vt 0.375000 1.000000
vt 0.332271 0.000000
vt 0.375000 0.957271
vt 0.625000 0.957206
vt 0.667794 0.000000
vt 0.375000 0.967953
vt 0.625000 0.967905
vt 0.625000 1.000000
vt 0.375000 1.000000
vt 0.375000 0.967953
vt 0.625000 0.967905
vt 0.625000 1.000000
vt 0.375000 1.000000
vt 0.625000 0.325000
vt 0.700000 0.250000
vt 0.300000 0.250000
vt 0.375000 0.325000
vt 0.375000 0.325000
vt 0.625000 0.325000
vt 0.625000 0.500000
vt 0.375000 0.500000
vt 0.625000 0.430000
vt 0.375000 0.430000
vn 0.000000 0.739234 0.673449
vn 0.000000 0.739234 0.673449
vn 0.000000 0.739234 0.673449
vn 0.000000 0.739234 0.673449
vn 0.000000 0.984131 0.177443
vn 0.000000 0.984131 0.177443
vn 0.000000 0.984131 0.177443
vn 0.000000 0.984131 0.177443
vn -0.000000 0.702806 -0.711382
vn -0.000000 0.702806 -0.711382
vn -0.000000 0.153776 -0.988106
vn -0.000000 0.153776 -0.988106
vn 0.000005 -0.999838 -0.018023
vn 0.000005 -0.999838 -0.018023
vn 0.000005 -0.999838 -0.018023
vn 0.000005 -0.999838 -0.018023
vn 0.998578 0.053061 0.005219
vn 0.998578 0.053061 0.005219
vn 0.998578 0.053061 0.005219
vn 0.998770 0.049349 0.004854
vn 0.998756 0.049632 0.004882
vn 0.998578 0.053061 0.005219
vn 0.998623 0.052277 0.004379
vn 0.998689 0.051088 0.003105
vn 0.997587 0.069403 0.001895
vn 0.996821 0.079679 -0.000198
vn 0.998578 0.053061 0.005219
vn -0.998688 0.051106 0.003105
vn -0.998622 0.052294 0.004379
vn -0.998577 0.053076 0.005219
vn -0.998755 0.049641 0.004882
vn -0.998769 0.049357 0.004854
vn -0.998577 0.053076 0.005219
vn -0.998577 0.053076 0.005219
vn -0.998577 0.053076 0.005219
vn -0.998577 0.053076 0.005219
vn -0.996820 0.079690 -0.000197
vn -0.997586 0.069416 0.001895
vn -0.000006 -0.999928 -0.012006
vn -0.000006 -0.999928 -0.012006
vn -0.000006 -0.999928 -0.012006
vn -0.000006 -0.999928 -0.012006
vn -0.000000 -0.999111 -0.042168
vn -0.000000 -0.999111 -0.042168
vn -0.000000 -0.999111 -0.042168
vn -0.000000 -0.999111 -0.042168
vn 0.000710 -0.719055 -0.694953
vn 0.000710 -0.719055 -0.694953
vn 0.000710 -0.719055 -0.694953
vn 0.000710 -0.719055 -0.694953
vn 1.000000 0.000000 0.000000
vn 1.000000 0.000000 0.000000
vn 0.000384 -0.766351 0.642422
vn 0.000384 -0.766351 0.642422
vn 0.000384 -0.766351 0.642422
vn 0.000384 -0.766351 0.642422
vn -1.000000 0.000000 0.000000
vn -1.000000 0.000000 0.000000
vn 0.000826 -0.399961 -0.916532
vn 0.000826 -0.399961 -0.916532
vn 0.000826 -0.399961 -0.916532
vn 0.000826 -0.399961 -0.916532
vn 1.000000 0.000000 0.000000
vn 1.000000 0.000000 0.000000
vn 0.000439 -0.475949 0.879473
vn 0.000439 -0.475949 0.879473
vn 0.000439 -0.475949 0.879473
vn 0.000439 -0.475949 0.879473
vn -1.000000 0.000001 0.000000
vn -1.000000 0.000001 0.000000
vn 0.000865 0.027408 -0.999624
vn 0.000865 0.027408 -0.999624
vn 0.000865 0.027408 -0.999624
vn 0.000865 0.027408 -0.999624
vn 1.000000 0.000000 0.000000
vn 1.000000 0.000000 0.000000
vn 1.000000 0.000000 0.000000
vn 1.000000 0.000000 0.000000
vn 0.000460 -0.027409 0.999624
vn 0.000460 -0.027409 0.999624
vn 0.000460 -0.027409 0.999624
vn 0.000460 -0.027409 0.999624
vn -1.000000 0.000000 0.000000
vn -1.000000 0.000000 0.000000
vn -1.000000 0.000000 0.000000
vn -1.000000 0.000000 0.000000
vn -0.000128 -0.993373 0.114932
vn -0.000128 -0.993373 0.114932
vn 0.000005 -0.999614 -0.027764
vn 0.000005 -0.999616 -0.027715
vn 0.000000 -0.037736 -0.999288
vn 0.000000 -0.037736 -0.999288
vn 0.999352 0.020637 -0.029477
vn 0.999352 0.020637 -0.029477
vn -0.000373 -0.821437 0.570299
vn -0.000373 -0.821437 0.570299
vn -0.000373 -0.821437 0.570299
vn -0.000373 -0.821437 0.570299
vn -0.999351 0.020648 -0.029522
vn -0.999351 0.020648 -0.029522
vn 0.000000 -0.052274 -0.998633
vn 0.000000 -0.052273 -0.998633
vn 0.000000 -0.052274 -0.998633
vn 0.000000 -0.052273 -0.998633
vn 0.999248 0.008622 -0.037817
vn 0.999248 0.008622 -0.037817
vn 0.999248 0.008622 -0.037817
vn 0.999248 0.008622 -0.037817
vn -0.000449 -0.457588 0.889164
vn -0.000449 -0.457588 0.889164
vn -0.000449 -0.457588 0.889164
vn -0.000449 -0.457588 0.889164
vn -0.999245 0.008619 -0.037875
vn -0.999245 0.008619 -0.037875
vn -0.999245 0.008619 -0.037875
vn -0.999245 0.008619 -0.037875
vn -0.000000 -0.190468 -0.981694
vn -0.000000 -0.190468 -0.981694
vn -0.000000 -0.190468 -0.981694
vn -0.000000 -0.190468 -0.981694
vn 0.975067 -0.217380 -0.044608
vn 0.975067 -0.217380 -0.044608
vn 0.975067 -0.217380 -0.044608
vn 0.975067 -0.217380 -0.044608
vn -0.000436 -0.089122 0.996021
vn -0.000436 -0.089122 0.996021
vn -0.000436 -0.089122 0.996021
vn -0.000436 -0.089122 0.996021
vn -0.975062 -0.217392 -0.044660
vn -0.975062 -0.217392 -0.044660
vn -0.975062 -0.217392 -0.044660
vn -0.975062 -0.217392 -0.044660
vn 0.000164 -0.980193 -0.198044
vn 0.000164 -0.980193 -0.198044
vn 0.000020 -0.999690 -0.024903
vn 0.000020 -0.999691 -0.024875
vn -0.000074 -0.977420 -0.211306
vn -0.000074 -0.977420 -0.211306
vn -0.000252 -0.707256 -0.706958
vn -0.000252 -0.707256 -0.706958
vn -0.000252 -0.707256 -0.706958
vn -0.000252 -0.707256 -0.706958
vn 0.998159 0.029783 0.052839
vn 0.998159 0.029783 0.052839
vn 0.998257 0.021603 0.054919
vn 0.998262 0.020894 0.055099
vn 0.000000 0.125913 0.992041
vn 0.000000 0.125913 0.992041
vn 0.000000 0.057710 0.998333
vn 0.000000 0.057710 0.998333
vn -0.998157 0.029799 0.052867
vn -0.998157 0.029799 0.052867
vn -0.998260 0.020901 0.055130
vn -0.998255 0.021611 0.054950
vn 0.000107 -0.988773 0.149428
vn 0.000107 -0.988773 0.149428
vn -0.000343 -0.353983 -0.935252
vn -0.000343 -0.353983 -0.935252
vn -0.000343 -0.353983 -0.935252
vn -0.000343 -0.353983 -0.935252
vn 0.998277 0.010467 0.057745
vn 0.998277 0.010467 0.057745
vn 0.000000 -0.016123 0.999870
vn 0.000000 -0.016123 0.999870
vn -0.998275 0.010464 0.057778
vn -0.998275 0.010464 0.057778
vn -0.000372 0.000000 -1.000000
vn -0.000372 0.000000 -1.000000
vn -0.000372 0.000000 -1.000000
vn -0.000372 0.000000 -1.000000
vn 0.998105 -0.010193 0.060686
vn 0.998105 -0.010193 0.060686
vn 0.998105 -0.010193 0.060686
vn 0.998105 -0.010193 0.060686
vn 0.000000 -0.318443 0.947942
vn 0.000000 -0.318443 0.947942
vn 0.000000 -0.318443 0.947942
vn 0.000000 -0.318443 0.947942
vn -0.998102 -0.010199 0.060725
vn -0.998102 -0.010199 0.060725
vn -0.998102 -0.010199 0.060725
vn -0.998102 -0.010199 0.060725
vn 0.000000 0.999884 -0.015235
vn 0.000000 0.999884 -0.015235
vn 0.000000 0.973045 -0.230615
vn 0.000000 0.973045 -0.230615
vn 0.000000 0.828851 0.559469
vn 0.000000 0.828851 0.559469
vn 0.000000 0.828851 0.559469
vn 0.000000 0.828851 0.559469
vn 0.988706 0.149177 -0.014395
vn 0.988706 0.149177 -0.014395
vn 0.988706 0.149177 -0.014395
vn 0.000000 0.977939 -0.208890
vn 0.000000 0.977939 -0.208890
vn -0.988706 0.149177 -0.014395
vn -0.988706 0.149177 -0.014395
vn -0.988706 0.149177 -0.014395
vn 0.000000 0.805007 -0.593266
vn 0.000000 0.805007 -0.593266
s off
g pCube1
usemtl initialShadingGroup
f 1/1/1 2/2/2 4/4/3 3/3/4
f 3/3/5 4/4/6 57/75/7 58/78/8
s 1
f 5/5/9 6/6/10 8/8/11 7/7/12
s off
f 53/71/13 54/72/14 55/73/15 56/74/16
s 2
f 2/2/17 42/58/18 48/66/19 12/22/20 10/18/21 39/52/22 25/36/23 8/11/24 6/12/25 57/76/26 4/4/27
s 3
f 7/13/28 26/37/29 40/53/30 9/15/31 11/19/32 47/63/33 41/55/34 1/1/35 3/3/36 58/77/37 5/14/38
s off
f 35/47/39 36/48/40 37/49/41 38/50/42
f 21/31/43 22/32/44 23/33/45 24/34/46
f 9/16/47 10/17/48 14/24/49 13/23/50
s 2
f 10/17/21 12/21/20 15/25/51 14/24/52
s off
f 12/21/53 11/20/54 16/26/55 15/25/56
s 3
f 11/20/32 9/16/31 13/23/57 16/26/58
s off
f 13/23/59 14/24/60 18/28/61 17/27/62
s 2
f 14/24/52 15/25/51 19/29/63 18/28/64
s off
f 15/25/65 16/26/66 20/30/67 19/29/68
s 3
f 16/26/58 13/23/57 17/27/69 20/30/70
s off
f 17/27/71 18/28/72 22/32/73 21/31/74
f 18/28/75 19/29/76 23/33/77 22/32/78
f 19/29/79 20/30/80 24/34/81 23/33/82
f 20/30/83 17/27/84 21/31/85 24/34/86
s 4
f 26/38/87 25/35/88 39/51/89 40/54/90
s 1
f 7/7/12 8/8/11 28/40/91 27/39/92
s 2
f 8/8/24 25/35/23 29/41/93 28/40/94
s off
f 25/35/95 26/38/96 30/42/97 29/41/98
s 3
f 26/38/29 7/7/28 27/39/99 30/42/100
s off
f 27/39/101 28/40/102 32/44/103 31/43/104
f 28/40/105 29/41/106 33/45/107 32/44/108
f 29/41/109 30/42/110 34/46/111 33/45/112
f 30/42/113 27/39/114 31/43/115 34/46/116
f 31/43/117 32/44/118 36/48/119 35/47/120
f 32/44/121 33/45/122 37/49/123 36/48/124
f 33/45/125 34/46/126 38/50/127 37/49/128
f 34/46/129 31/43/130 35/47/131 38/50/132
s 4
f 40/54/90 39/51/89 10/17/133 9/16/134
s 5
f 47/64/135 48/65/136 42/57/137 41/56/138
s off
f 41/56/139 42/57/140 44/60/141 43/59/142
s 6
f 42/57/143 2/10/144 45/61/145 44/60/146
s 7
f 2/10/147 1/9/148 46/62/149 45/61/150
s 8
f 1/9/151 41/56/152 43/59/153 46/62/154
s 5
f 11/20/155 12/21/156 48/65/136 47/64/135
s off
f 43/59/157 44/60/158 50/68/159 49/67/160
s 6
f 44/60/146 45/61/145 51/69/161 50/68/162
s 7
f 45/61/150 46/62/149 52/70/163 51/69/164
s 8
f 46/62/154 43/59/153 49/67/165 52/70/166
s off
f 49/67/167 50/68/168 54/72/169 53/71/170
f 50/68/171 51/69/172 55/73/173 54/72/174
f 51/69/175 52/70/176 56/74/177 55/73/178
f 52/70/179 49/67/180 53/71/181 56/74/182
s 9
f 60/79/183 59/80/184 63/83/185 64/84/186
s off
f 58/78/187 57/75/188 59/80/189 60/79/190
s 2
f 57/75/26 6/6/25 61/81/191 63/83/192 59/80/193
s 1
f 6/6/10 5/5/9 62/82/194 61/81/195
s 3
f 5/5/38 58/78/37 60/79/196 64/84/197 62/82/198
s 9
f 64/84/186 63/83/185 61/81/199 62/82/200
